<?xml version="1.0" encoding="UTF-8"?>
<svg width="32" height="32" viewBox="0 0 32 32" xmlns="http://www.w3.org/2000/svg">
  <!-- Background -->
  <rect width="32" height="32" fill="transparent"/>
  
  <!-- Location Pin Icon -->
  <g transform="translate(4, 2)">
    <!-- Drop shadow -->
    <ellipse cx="12" cy="28" rx="4" ry="1.5" fill="rgba(0,0,0,0.2)" opacity="0.3"/>
    
    <!-- Main pin body -->
    <path d="M12 2 C17 2 20 5 20 10 C20 15 12 26 12 26 C12 26 4 15 4 10 C4 5 7 2 12 2 Z" fill="#1e3a8a" stroke="#1e3a8a" stroke-width="0.5"/>
    
    <!-- Outer orange ring -->
    <circle cx="12" cy="10" r="6" fill="#f59e0b" stroke="#ffffff" stroke-width="1"/>
    
    <!-- Inner navy circle -->
    <circle cx="12" cy="10" r="3.5" fill="#1e3a8a"/>
    
    <!-- Inner orange circle -->
    <circle cx="12" cy="10" r="1.5" fill="#f59e0b"/>
    
    <!-- Pin point detail -->
    <path d="M12 20 L9 15 L15 15 Z" fill="#1e3a8a"/>
    
    <!-- Vertical lines inside pin -->
    <line x1="10.5" y1="17" x2="10.5" y2="21" stroke="#ffffff" stroke-width="0.5" stroke-linecap="round"/>
    <line x1="12" y1="17" x2="12" y2="24" stroke="#ffffff" stroke-width="0.5" stroke-linecap="round"/>
    <line x1="13.5" y1="17" x2="13.5" y2="21" stroke="#ffffff" stroke-width="0.5" stroke-linecap="round"/>
  </g>
</svg>
