<?xml version="1.0" encoding="UTF-8"?>
<svg width="400" height="520" viewBox="0 0 400 520" fill="none" xmlns="http://www.w3.org/2000/svg">
  <!-- Pin shape -->
  <path d="M200 500C200 500 360 280 360 180C360 80 278 0 200 0C122 0 40 80 40 180C40 280 200 500 200 500Z" fill="#142945" stroke="#142945" stroke-width="8"/>
  <!-- Outer orange ring -->
  <circle cx="200" cy="180" r="120" fill="none" stroke="#FF9900" stroke-width="24"/>
  <!-- Middle navy ring -->
  <circle cx="200" cy="180" r="80" fill="none" stroke="#142945" stroke-width="18"/>
  <!-- Inner orange ring -->
  <circle cx="200" cy="180" r="48" fill="none" stroke="#FF9900" stroke-width="14"/>
  <!-- Center dot -->
  <circle cx="200" cy="180" r="24" fill="#FF9900"/>
  <!-- Drip lines -->
  <rect x="188" y="270" width="12" height="90" rx="6" fill="#142945"/>
  <rect x="224" y="270" width="12" height="60" rx="6" fill="#142945"/>
  <rect x="164" y="270" width="12" height="45" rx="6" fill="#142945"/>
  <!-- Shadow -->
  <ellipse cx="200" cy="510" rx="80" ry="16" fill="#e0e7ef"/>
  <!-- Text -->
  <text x="50%" y="560" text-anchor="middle" font-family="Georgia,serif" font-size="40" fill="#142945" font-weight="bold">OnPointFinances</text>
  <text x="50%" y="600" text-anchor="middle" font-family="Georgia,serif" font-size="24" fill="#FF9900">-enabling financial freedom-</text>
</svg>
